<mxfile host="app.diagrams.net" modified="2024-06-20T15:12:29.973Z" agent="Mozilla/5.0 (Windows NT 10.0; Win64; x64) AppleWebKit/537.36 (KHTML, like Gecko) Chrome/126.0.0.0 Safari/537.36" etag="RfwM1ClEderVAhyvcGgZ" version="24.5.5" type="github">
  <diagram id="prtHgNgQTEPvFCAcTncT" name="Page-1">
    <mxGraphModel dx="1338" dy="908" grid="1" gridSize="10" guides="1" tooltips="1" connect="1" arrows="1" fold="1" page="1" pageScale="1" pageWidth="827" pageHeight="1169" math="0" shadow="0">
      <root>
        <mxCell id="0" />
        <mxCell id="1" parent="0" />
        <mxCell id="RF3zyUqbUcaU6skOfCHZ-1" value="&lt;font style=&quot;font-size: 18px;&quot;&gt;Analyze the cause of the fire&amp;nbsp;&lt;/font&gt;" style="shape=table;html=1;whiteSpace=wrap;startSize=76;container=1;collapsible=0;childLayout=tableLayout;fillColor=none;swimlaneFillColor=#ffffff;strokeColor=none;" parent="1" vertex="1">
          <mxGeometry x="65" y="144" width="690" height="1246" as="geometry" />
        </mxCell>
        <mxCell id="RF3zyUqbUcaU6skOfCHZ-2" value="" style="shape=partialRectangle;html=1;whiteSpace=wrap;collapsible=0;dropTarget=0;pointerEvents=0;fillColor=none;top=0;left=0;bottom=0;right=0;points=[[0,0.5],[1,0.5]];portConstraint=eastwest;strokeColor=none;" parent="RF3zyUqbUcaU6skOfCHZ-1" vertex="1">
          <mxGeometry y="76" width="690" height="38" as="geometry" />
        </mxCell>
        <mxCell id="RF3zyUqbUcaU6skOfCHZ-3" value="" style="shape=partialRectangle;html=1;whiteSpace=wrap;connectable=0;fillColor=none;top=1;left=1;bottom=1;right=1;overflow=hidden;strokeColor=none;" parent="RF3zyUqbUcaU6skOfCHZ-2" vertex="1">
          <mxGeometry width="20" height="38" as="geometry">
            <mxRectangle width="20" height="38" as="alternateBounds" />
          </mxGeometry>
        </mxCell>
        <mxCell id="RF3zyUqbUcaU6skOfCHZ-4" value="Related personnel" style="shape=partialRectangle;html=1;whiteSpace=wrap;connectable=0;fillColor=none;top=1;left=1;bottom=1;right=1;overflow=hidden;" parent="RF3zyUqbUcaU6skOfCHZ-2" vertex="1">
          <mxGeometry x="20" width="250" height="38" as="geometry">
            <mxRectangle width="250" height="38" as="alternateBounds" />
          </mxGeometry>
        </mxCell>
        <mxCell id="RF3zyUqbUcaU6skOfCHZ-5" value="FIP System" style="shape=partialRectangle;html=1;whiteSpace=wrap;connectable=0;fillColor=none;top=1;left=1;bottom=1;right=1;overflow=hidden;" parent="RF3zyUqbUcaU6skOfCHZ-2" vertex="1">
          <mxGeometry x="270" width="275" height="38" as="geometry">
            <mxRectangle width="275" height="38" as="alternateBounds" />
          </mxGeometry>
        </mxCell>
        <mxCell id="RF3zyUqbUcaU6skOfCHZ-18" value="sensor" style="shape=partialRectangle;html=1;whiteSpace=wrap;connectable=0;fillColor=none;top=1;left=1;bottom=1;right=1;overflow=hidden;" parent="RF3zyUqbUcaU6skOfCHZ-2" vertex="1">
          <mxGeometry x="545" width="145" height="38" as="geometry">
            <mxRectangle width="145" height="38" as="alternateBounds" />
          </mxGeometry>
        </mxCell>
        <mxCell id="RF3zyUqbUcaU6skOfCHZ-6" value="" style="shape=partialRectangle;html=1;whiteSpace=wrap;collapsible=0;dropTarget=0;pointerEvents=0;fillColor=none;top=1;left=1;bottom=1;right=1;points=[[0,0.5],[1,0.5]];portConstraint=eastwest;" parent="RF3zyUqbUcaU6skOfCHZ-1" vertex="1">
          <mxGeometry y="114" width="690" height="1132" as="geometry" />
        </mxCell>
        <mxCell id="RF3zyUqbUcaU6skOfCHZ-7" value="" style="shape=partialRectangle;html=1;whiteSpace=wrap;connectable=0;fillColor=none;top=1;left=1;bottom=1;right=1;overflow=hidden;horizontal=0;" parent="RF3zyUqbUcaU6skOfCHZ-6" vertex="1">
          <mxGeometry width="20" height="1132" as="geometry">
            <mxRectangle width="20" height="1132" as="alternateBounds" />
          </mxGeometry>
        </mxCell>
        <mxCell id="RF3zyUqbUcaU6skOfCHZ-8" value="" style="shape=partialRectangle;html=1;whiteSpace=wrap;connectable=0;fillColor=none;top=1;left=1;bottom=1;right=1;overflow=hidden;" parent="RF3zyUqbUcaU6skOfCHZ-6" vertex="1">
          <mxGeometry x="20" width="250" height="1132" as="geometry">
            <mxRectangle width="250" height="1132" as="alternateBounds" />
          </mxGeometry>
        </mxCell>
        <mxCell id="RF3zyUqbUcaU6skOfCHZ-9" value="" style="shape=partialRectangle;html=1;whiteSpace=wrap;connectable=0;fillColor=none;top=1;left=1;bottom=1;right=1;overflow=hidden;" parent="RF3zyUqbUcaU6skOfCHZ-6" vertex="1">
          <mxGeometry x="270" width="275" height="1132" as="geometry">
            <mxRectangle width="275" height="1132" as="alternateBounds" />
          </mxGeometry>
        </mxCell>
        <mxCell id="RF3zyUqbUcaU6skOfCHZ-19" style="shape=partialRectangle;html=1;whiteSpace=wrap;connectable=0;fillColor=none;top=1;left=1;bottom=1;right=1;overflow=hidden;" parent="RF3zyUqbUcaU6skOfCHZ-6" vertex="1">
          <mxGeometry x="545" width="145" height="1132" as="geometry">
            <mxRectangle width="145" height="1132" as="alternateBounds" />
          </mxGeometry>
        </mxCell>
        <mxCell id="RF3zyUqbUcaU6skOfCHZ-25" style="edgeStyle=orthogonalEdgeStyle;rounded=0;orthogonalLoop=1;jettySize=auto;html=1;exitX=0.5;exitY=1;exitDx=0;exitDy=0;entryX=0.5;entryY=0;entryDx=0;entryDy=0;" parent="1" source="RF3zyUqbUcaU6skOfCHZ-22" target="RF3zyUqbUcaU6skOfCHZ-24" edge="1">
          <mxGeometry relative="1" as="geometry" />
        </mxCell>
        <mxCell id="RF3zyUqbUcaU6skOfCHZ-22" value="" style="rhombus;whiteSpace=wrap;html=1;" parent="1" vertex="1">
          <mxGeometry x="165" y="320" width="80" height="80" as="geometry" />
        </mxCell>
        <mxCell id="bqeU2OcTjknysu44M0lN-6" style="edgeStyle=orthogonalEdgeStyle;rounded=0;orthogonalLoop=1;jettySize=auto;html=1;exitX=0.5;exitY=1;exitDx=0;exitDy=0;entryX=0.5;entryY=0;entryDx=0;entryDy=0;" edge="1" parent="1" source="RF3zyUqbUcaU6skOfCHZ-24" target="bqeU2OcTjknysu44M0lN-1">
          <mxGeometry relative="1" as="geometry" />
        </mxCell>
        <mxCell id="RF3zyUqbUcaU6skOfCHZ-24" value="Enter the date range for exporting logs" style="rounded=1;whiteSpace=wrap;html=1;" parent="1" vertex="1">
          <mxGeometry x="145" y="420" width="120" height="60" as="geometry" />
        </mxCell>
        <mxCell id="RF3zyUqbUcaU6skOfCHZ-29" style="edgeStyle=orthogonalEdgeStyle;rounded=0;orthogonalLoop=1;jettySize=auto;html=1;exitX=0.5;exitY=1;exitDx=0;exitDy=0;" parent="1" source="RF3zyUqbUcaU6skOfCHZ-26" target="RF3zyUqbUcaU6skOfCHZ-28" edge="1">
          <mxGeometry relative="1" as="geometry" />
        </mxCell>
        <mxCell id="RF3zyUqbUcaU6skOfCHZ-26" value="Check if the date is valid" style="rounded=1;whiteSpace=wrap;html=1;" parent="1" vertex="1">
          <mxGeometry x="360" y="497" width="120" height="60" as="geometry" />
        </mxCell>
        <mxCell id="RF3zyUqbUcaU6skOfCHZ-31" style="edgeStyle=orthogonalEdgeStyle;rounded=0;orthogonalLoop=1;jettySize=auto;html=1;exitX=0;exitY=0.5;exitDx=0;exitDy=0;entryX=0.5;entryY=0;entryDx=0;entryDy=0;" parent="1" source="RF3zyUqbUcaU6skOfCHZ-28" target="RF3zyUqbUcaU6skOfCHZ-30" edge="1">
          <mxGeometry relative="1" as="geometry" />
        </mxCell>
        <mxCell id="RF3zyUqbUcaU6skOfCHZ-50" value="[Dates invalid]" style="edgeLabel;html=1;align=center;verticalAlign=middle;resizable=0;points=[];" parent="RF3zyUqbUcaU6skOfCHZ-31" vertex="1" connectable="0">
          <mxGeometry x="0.0255" y="1" relative="1" as="geometry">
            <mxPoint as="offset" />
          </mxGeometry>
        </mxCell>
        <mxCell id="RF3zyUqbUcaU6skOfCHZ-59" style="edgeStyle=orthogonalEdgeStyle;rounded=0;orthogonalLoop=1;jettySize=auto;html=1;exitX=0.5;exitY=1;exitDx=0;exitDy=0;" parent="1" source="RF3zyUqbUcaU6skOfCHZ-28" target="RF3zyUqbUcaU6skOfCHZ-58" edge="1">
          <mxGeometry relative="1" as="geometry">
            <Array as="points">
              <mxPoint x="475" y="660" />
              <mxPoint x="525" y="660" />
            </Array>
          </mxGeometry>
        </mxCell>
        <mxCell id="xKFCwPehn0CRtQJCIZPQ-5" value="[Dates invalid]" style="edgeLabel;html=1;align=center;verticalAlign=middle;resizable=0;points=[];" parent="RF3zyUqbUcaU6skOfCHZ-59" vertex="1" connectable="0">
          <mxGeometry x="-0.0133" y="-1" relative="1" as="geometry">
            <mxPoint x="16" y="-21" as="offset" />
          </mxGeometry>
        </mxCell>
        <mxCell id="RF3zyUqbUcaU6skOfCHZ-28" value="" style="rhombus;whiteSpace=wrap;html=1;" parent="1" vertex="1">
          <mxGeometry x="434" y="570" width="80" height="80" as="geometry" />
        </mxCell>
        <mxCell id="RF3zyUqbUcaU6skOfCHZ-32" style="edgeStyle=orthogonalEdgeStyle;rounded=0;orthogonalLoop=1;jettySize=auto;html=1;exitX=0.5;exitY=1;exitDx=0;exitDy=0;entryX=0;entryY=0.5;entryDx=0;entryDy=0;" parent="1" source="RF3zyUqbUcaU6skOfCHZ-30" target="RF3zyUqbUcaU6skOfCHZ-22" edge="1">
          <mxGeometry relative="1" as="geometry">
            <Array as="points">
              <mxPoint x="405" y="790" />
              <mxPoint x="115" y="790" />
              <mxPoint x="115" y="360" />
            </Array>
          </mxGeometry>
        </mxCell>
        <mxCell id="RF3zyUqbUcaU6skOfCHZ-30" value="Prompt manager for&lt;br/&gt;valid dates&amp;nbsp;" style="rounded=1;whiteSpace=wrap;html=1;" parent="1" vertex="1">
          <mxGeometry x="345" y="710" width="120" height="60" as="geometry" />
        </mxCell>
        <mxCell id="RF3zyUqbUcaU6skOfCHZ-36" style="edgeStyle=orthogonalEdgeStyle;rounded=0;orthogonalLoop=1;jettySize=auto;html=1;exitX=0.5;exitY=1;exitDx=0;exitDy=0;" parent="1" source="RF3zyUqbUcaU6skOfCHZ-33" target="RF3zyUqbUcaU6skOfCHZ-35" edge="1">
          <mxGeometry relative="1" as="geometry" />
        </mxCell>
        <mxCell id="RF3zyUqbUcaU6skOfCHZ-33" value="Query the system log information within the corresponding time" style="rounded=1;whiteSpace=wrap;html=1;" parent="1" vertex="1">
          <mxGeometry x="415" y="916" width="120" height="60" as="geometry" />
        </mxCell>
        <mxCell id="RF3zyUqbUcaU6skOfCHZ-39" style="edgeStyle=orthogonalEdgeStyle;rounded=0;orthogonalLoop=1;jettySize=auto;html=1;exitX=0.5;exitY=1;exitDx=0;exitDy=0;entryX=0.5;entryY=0;entryDx=0;entryDy=0;" parent="1" source="RF3zyUqbUcaU6skOfCHZ-35" target="RF3zyUqbUcaU6skOfCHZ-37" edge="1">
          <mxGeometry relative="1" as="geometry" />
        </mxCell>
        <mxCell id="RF3zyUqbUcaU6skOfCHZ-35" value="Query the sensor log information within the corresponding time" style="rounded=1;whiteSpace=wrap;html=1;" parent="1" vertex="1">
          <mxGeometry x="615" y="850" width="120" height="60" as="geometry" />
        </mxCell>
        <mxCell id="RF3zyUqbUcaU6skOfCHZ-41" style="edgeStyle=orthogonalEdgeStyle;rounded=0;orthogonalLoop=1;jettySize=auto;html=1;exitX=0.5;exitY=1;exitDx=0;exitDy=0;entryX=0.5;entryY=0;entryDx=0;entryDy=0;" parent="1" source="RF3zyUqbUcaU6skOfCHZ-37" target="RF3zyUqbUcaU6skOfCHZ-40" edge="1">
          <mxGeometry relative="1" as="geometry" />
        </mxCell>
        <mxCell id="RF3zyUqbUcaU6skOfCHZ-37" value="Return the queried data to the system" style="rounded=1;whiteSpace=wrap;html=1;" parent="1" vertex="1">
          <mxGeometry x="615" y="940" width="120" height="60" as="geometry" />
        </mxCell>
        <mxCell id="RF3zyUqbUcaU6skOfCHZ-43" style="edgeStyle=orthogonalEdgeStyle;rounded=0;orthogonalLoop=1;jettySize=auto;html=1;exitX=0.5;exitY=1;exitDx=0;exitDy=0;" parent="1" source="RF3zyUqbUcaU6skOfCHZ-40" target="RF3zyUqbUcaU6skOfCHZ-42" edge="1">
          <mxGeometry relative="1" as="geometry" />
        </mxCell>
        <mxCell id="RF3zyUqbUcaU6skOfCHZ-40" value="The system receives the information and summarizes it" style="rounded=1;whiteSpace=wrap;html=1;" parent="1" vertex="1">
          <mxGeometry x="415" y="1060" width="120" height="60" as="geometry" />
        </mxCell>
        <mxCell id="bqeU2OcTjknysu44M0lN-3" style="edgeStyle=orthogonalEdgeStyle;rounded=0;orthogonalLoop=1;jettySize=auto;html=1;exitX=0;exitY=0.5;exitDx=0;exitDy=0;entryX=1;entryY=0.5;entryDx=0;entryDy=0;" edge="1" parent="1" source="RF3zyUqbUcaU6skOfCHZ-42" target="RF3zyUqbUcaU6skOfCHZ-44">
          <mxGeometry relative="1" as="geometry" />
        </mxCell>
        <mxCell id="RF3zyUqbUcaU6skOfCHZ-42" value="Display summary log results to managers" style="rounded=1;whiteSpace=wrap;html=1;" parent="1" vertex="1">
          <mxGeometry x="414" y="1160" width="120" height="60" as="geometry" />
        </mxCell>
        <mxCell id="RF3zyUqbUcaU6skOfCHZ-54" style="edgeStyle=orthogonalEdgeStyle;rounded=0;orthogonalLoop=1;jettySize=auto;html=1;exitX=0.5;exitY=1;exitDx=0;exitDy=0;entryX=0.5;entryY=0;entryDx=0;entryDy=0;" parent="1" source="RF3zyUqbUcaU6skOfCHZ-44" target="RF3zyUqbUcaU6skOfCHZ-53" edge="1">
          <mxGeometry relative="1" as="geometry" />
        </mxCell>
        <mxCell id="RF3zyUqbUcaU6skOfCHZ-44" value="Determine whether the log meets the requirements" style="rounded=1;whiteSpace=wrap;html=1;" parent="1" vertex="1">
          <mxGeometry x="155" y="1040" width="120" height="60" as="geometry" />
        </mxCell>
        <mxCell id="RF3zyUqbUcaU6skOfCHZ-68" style="edgeStyle=orthogonalEdgeStyle;rounded=0;orthogonalLoop=1;jettySize=auto;html=1;exitX=0.5;exitY=1;exitDx=0;exitDy=0;entryX=0.5;entryY=0;entryDx=0;entryDy=0;" parent="1" source="RF3zyUqbUcaU6skOfCHZ-46" target="RF3zyUqbUcaU6skOfCHZ-67" edge="1">
          <mxGeometry relative="1" as="geometry" />
        </mxCell>
        <mxCell id="RF3zyUqbUcaU6skOfCHZ-46" value="Analyzing the causes of fire through data" style="rounded=1;whiteSpace=wrap;html=1;" parent="1" vertex="1">
          <mxGeometry x="155" y="1250" width="120" height="60" as="geometry" />
        </mxCell>
        <mxCell id="RF3zyUqbUcaU6skOfCHZ-63" style="edgeStyle=orthogonalEdgeStyle;rounded=0;orthogonalLoop=1;jettySize=auto;html=1;exitX=0;exitY=0.5;exitDx=0;exitDy=0;entryX=0;entryY=0.5;entryDx=0;entryDy=0;" parent="1" source="RF3zyUqbUcaU6skOfCHZ-53" target="RF3zyUqbUcaU6skOfCHZ-56" edge="1">
          <mxGeometry relative="1" as="geometry" />
        </mxCell>
        <mxCell id="RF3zyUqbUcaU6skOfCHZ-64" value="Insufficient data" style="edgeLabel;html=1;align=center;verticalAlign=middle;resizable=0;points=[];" parent="RF3zyUqbUcaU6skOfCHZ-63" vertex="1" connectable="0">
          <mxGeometry x="0.0352" y="2" relative="1" as="geometry">
            <mxPoint as="offset" />
          </mxGeometry>
        </mxCell>
        <mxCell id="RF3zyUqbUcaU6skOfCHZ-65" style="edgeStyle=orthogonalEdgeStyle;rounded=0;orthogonalLoop=1;jettySize=auto;html=1;exitX=0.5;exitY=1;exitDx=0;exitDy=0;entryX=0.5;entryY=0;entryDx=0;entryDy=0;" parent="1" source="RF3zyUqbUcaU6skOfCHZ-53" target="RF3zyUqbUcaU6skOfCHZ-46" edge="1">
          <mxGeometry relative="1" as="geometry" />
        </mxCell>
        <mxCell id="RF3zyUqbUcaU6skOfCHZ-66" value="Sufficient data" style="edgeLabel;html=1;align=center;verticalAlign=middle;resizable=0;points=[];" parent="RF3zyUqbUcaU6skOfCHZ-65" vertex="1" connectable="0">
          <mxGeometry x="-0.0291" y="1" relative="1" as="geometry">
            <mxPoint as="offset" />
          </mxGeometry>
        </mxCell>
        <mxCell id="RF3zyUqbUcaU6skOfCHZ-53" value="" style="rhombus;whiteSpace=wrap;html=1;" parent="1" vertex="1">
          <mxGeometry x="175" y="1120" width="80" height="80" as="geometry" />
        </mxCell>
        <mxCell id="RF3zyUqbUcaU6skOfCHZ-62" style="edgeStyle=orthogonalEdgeStyle;rounded=0;orthogonalLoop=1;jettySize=auto;html=1;exitX=0.5;exitY=1;exitDx=0;exitDy=0;entryX=0;entryY=0.5;entryDx=0;entryDy=0;" parent="1" source="RF3zyUqbUcaU6skOfCHZ-56" target="RF3zyUqbUcaU6skOfCHZ-33" edge="1">
          <mxGeometry relative="1" as="geometry" />
        </mxCell>
        <mxCell id="RF3zyUqbUcaU6skOfCHZ-56" value="Select which types of log data to export" style="rounded=1;whiteSpace=wrap;html=1;" parent="1" vertex="1">
          <mxGeometry x="155" y="830" width="120" height="60" as="geometry" />
        </mxCell>
        <mxCell id="RF3zyUqbUcaU6skOfCHZ-60" style="edgeStyle=orthogonalEdgeStyle;rounded=0;orthogonalLoop=1;jettySize=auto;html=1;exitX=0.5;exitY=1;exitDx=0;exitDy=0;entryX=0.5;entryY=0;entryDx=0;entryDy=0;" parent="1" source="RF3zyUqbUcaU6skOfCHZ-58" target="RF3zyUqbUcaU6skOfCHZ-56" edge="1">
          <mxGeometry relative="1" as="geometry" />
        </mxCell>
        <mxCell id="RF3zyUqbUcaU6skOfCHZ-58" value="Output the log types that can be exported within the type" style="rounded=1;whiteSpace=wrap;html=1;" parent="1" vertex="1">
          <mxGeometry x="465" y="800" width="120" height="60" as="geometry" />
        </mxCell>
        <mxCell id="RF3zyUqbUcaU6skOfCHZ-67" value="" style="ellipse;html=1;shape=endState;fillColor=#000000;strokeColor=#ff0000;" parent="1" vertex="1">
          <mxGeometry x="200" y="1350" width="30" height="30" as="geometry" />
        </mxCell>
        <mxCell id="xKFCwPehn0CRtQJCIZPQ-3" value="" style="ellipse;html=1;shape=startState;fillColor=#000000;strokeColor=#ff0000;" parent="1" vertex="1">
          <mxGeometry x="190" y="270" width="30" height="30" as="geometry" />
        </mxCell>
        <mxCell id="xKFCwPehn0CRtQJCIZPQ-4" value="" style="edgeStyle=orthogonalEdgeStyle;html=1;verticalAlign=bottom;endArrow=open;endSize=8;strokeColor=#ff0000;rounded=0;entryX=0.5;entryY=0;entryDx=0;entryDy=0;" parent="1" source="xKFCwPehn0CRtQJCIZPQ-3" target="RF3zyUqbUcaU6skOfCHZ-22" edge="1">
          <mxGeometry relative="1" as="geometry">
            <mxPoint x="205" y="360" as="targetPoint" />
          </mxGeometry>
        </mxCell>
        <mxCell id="bqeU2OcTjknysu44M0lN-5" style="edgeStyle=orthogonalEdgeStyle;rounded=0;orthogonalLoop=1;jettySize=auto;html=1;exitX=0.5;exitY=1;exitDx=0;exitDy=0;entryX=0.5;entryY=0;entryDx=0;entryDy=0;" edge="1" parent="1" source="bqeU2OcTjknysu44M0lN-1" target="RF3zyUqbUcaU6skOfCHZ-26">
          <mxGeometry relative="1" as="geometry">
            <Array as="points">
              <mxPoint x="420" y="380" />
            </Array>
          </mxGeometry>
        </mxCell>
        <mxCell id="bqeU2OcTjknysu44M0lN-10" value="Have permissions" style="edgeLabel;html=1;align=center;verticalAlign=middle;resizable=0;points=[];" vertex="1" connectable="0" parent="bqeU2OcTjknysu44M0lN-5">
          <mxGeometry x="0.3721" y="1" relative="1" as="geometry">
            <mxPoint as="offset" />
          </mxGeometry>
        </mxCell>
        <mxCell id="bqeU2OcTjknysu44M0lN-7" style="edgeStyle=orthogonalEdgeStyle;rounded=0;orthogonalLoop=1;jettySize=auto;html=1;exitX=1;exitY=0.5;exitDx=0;exitDy=0;entryX=0.5;entryY=0;entryDx=0;entryDy=0;" edge="1" parent="1" source="bqeU2OcTjknysu44M0lN-1" target="bqeU2OcTjknysu44M0lN-2">
          <mxGeometry relative="1" as="geometry" />
        </mxCell>
        <mxCell id="bqeU2OcTjknysu44M0lN-9" value="permission denied" style="edgeLabel;html=1;align=center;verticalAlign=middle;resizable=0;points=[];" vertex="1" connectable="0" parent="bqeU2OcTjknysu44M0lN-7">
          <mxGeometry x="0.2222" relative="1" as="geometry">
            <mxPoint as="offset" />
          </mxGeometry>
        </mxCell>
        <mxCell id="bqeU2OcTjknysu44M0lN-1" value="" style="rhombus;whiteSpace=wrap;html=1;" vertex="1" parent="1">
          <mxGeometry x="435" y="300" width="80" height="80" as="geometry" />
        </mxCell>
        <mxCell id="bqeU2OcTjknysu44M0lN-8" style="edgeStyle=orthogonalEdgeStyle;rounded=0;orthogonalLoop=1;jettySize=auto;html=1;exitX=0.5;exitY=1;exitDx=0;exitDy=0;entryX=1;entryY=0.5;entryDx=0;entryDy=0;" edge="1" parent="1" source="bqeU2OcTjknysu44M0lN-2" target="RF3zyUqbUcaU6skOfCHZ-67">
          <mxGeometry relative="1" as="geometry">
            <mxPoint x="800" y="1070" as="targetPoint" />
            <Array as="points">
              <mxPoint x="535" y="510" />
              <mxPoint x="740" y="510" />
              <mxPoint x="740" y="1365" />
            </Array>
          </mxGeometry>
        </mxCell>
        <mxCell id="bqeU2OcTjknysu44M0lN-2" value="Prompt no permission" style="rounded=1;whiteSpace=wrap;html=1;" vertex="1" parent="1">
          <mxGeometry x="475" y="410" width="120" height="60" as="geometry" />
        </mxCell>
      </root>
    </mxGraphModel>
  </diagram>
</mxfile>
